<svg width="100" height="100" viewBox="0 0 100 100" fill="none" xmlns="http://www.w3.org/2000/svg">
<g clip-path="url(#clip0)">
<g filter="url(#filter0_d)">
<path fill-rule="evenodd" clip-rule="evenodd" d="M64.0782 61.3406C63.5318 61.3743 63.0899 61.2283 62.6918 60.8254C62.4123 60.5417 62.1825 60.116 61.957 59.6728C60.0796 55.9741 58.304 53.783 55.3875 51.4831L53.6724 50.379C55.7718 48.9154 56.6138 48.3251 59.6704 46.0519L60.2949 42.7958L73.8799 33.9252L76.856 31.9884L77 31.8943L76.3871 30.3731L74.9965 31.2716L74.478 30L71.3886 32.0365L71.8945 33.2764L49.5 47.693L27.1055 33.2764L27.6114 32.0365L24.522 30L24.0033 31.2716L22.6127 30.3731L22 31.8943L22.144 31.9884L25.12 33.9252L38.705 42.7958L39.3296 46.0519C42.3862 48.3251 43.2282 48.9154 45.3276 50.379L43.6125 51.4831C40.696 53.783 38.9204 55.9741 37.0428 59.6728C36.8175 60.116 36.5877 60.5417 36.3081 60.8254C35.9101 61.2283 35.468 61.3743 34.9217 61.3406C34.242 61.2978 33.816 61.266 33.1609 61.8177C29.4647 64.9293 25.6945 67.8987 22 71.0141L25.6259 81C28.2077 77.3551 30.9087 74.0004 33.4927 70.3581C34.5779 68.8279 35.4717 68.4259 36.9145 68.3861L38.0656 68.4185L38.1573 66.66C38.2637 64.6655 38.5949 63.0457 39.3944 61.8752C39.9352 61.0834 40.5494 60.3255 41.2446 59.661C41.7602 60.9123 43.2285 61.2471 44.5232 60.4047C45.8237 59.5582 46.1337 58.0546 45.6246 56.7897C45.5663 56.6459 45.5002 56.5111 45.4267 56.3861C46.7812 55.3754 48.1414 54.3769 49.5 53.3753C50.8586 54.3769 52.2188 55.3754 53.5733 56.3861C53.4998 56.5111 53.4335 56.6459 53.3754 56.7897C52.8663 58.0546 53.1763 59.5582 54.4767 60.4047C55.7713 61.2471 57.2398 60.9123 57.7554 59.661C58.4506 60.3255 59.0646 61.0834 59.6055 61.8752C60.4051 63.0457 60.7363 64.6655 60.8427 66.66L60.9344 68.4185L62.0855 68.3861C63.5283 68.4259 64.4221 68.8279 65.5072 70.3581C68.0913 74.0004 70.7923 77.3551 73.3741 81L77 71.0141C73.3054 67.8987 69.5353 64.9293 65.8391 61.8177C65.184 61.266 64.758 61.2978 64.0782 61.3406ZM45.3456 58.187L45.2796 58.5436L45.1498 58.8908L44.9481 59.2281L44.6659 59.5474L44.2951 59.8385L43.8737 60.0623L43.4538 60.1924L43.049 60.2332L42.6737 60.1902L42.3415 60.0717L42.063 59.8878L41.844 59.6484L41.6841 59.3548L41.6634 59.2809L44.5283 57.0483C44.6745 56.9422 45.0634 56.7134 45.2959 57.4522L45.3509 57.8227L45.3456 58.187ZM57.3157 59.3548L57.156 59.6484L56.937 59.8878L56.6585 60.0717L56.3261 60.1902L55.951 60.2332L55.5462 60.1924L55.1261 60.0623L54.7047 59.8385L54.3341 59.5474L54.0519 59.2281L53.8502 58.8908L53.7204 58.5436L53.6544 58.187L53.6491 57.8227L53.7039 57.4522C53.9366 56.7134 54.3254 56.9422 54.4716 57.0483L57.3364 59.2809L57.3157 59.3548Z" fill="white"/>
</g>
<g filter="url(#filter1_d)">
<path d="M35.068 93V84.48H38.668C39.036 84.48 39.372 84.556 39.676 84.708C39.988 84.86 40.256 85.068 40.48 85.332C40.704 85.588 40.876 85.876 40.996 86.196C41.124 86.508 41.188 86.828 41.188 87.156C41.188 87.572 41.108 87.96 40.948 88.32C40.796 88.68 40.576 88.984 40.288 89.232C40 89.48 39.668 89.64 39.292 89.712L41.38 93H40.432L38.428 89.856H35.908V93H35.068ZM35.908 89.112H38.692C39.028 89.112 39.32 89.02 39.568 88.836C39.816 88.644 40.008 88.4 40.144 88.104C40.28 87.808 40.348 87.492 40.348 87.156C40.348 86.812 40.268 86.496 40.108 86.208C39.956 85.912 39.748 85.676 39.484 85.5C39.22 85.316 38.932 85.224 38.62 85.224H35.908V89.112ZM42.6813 85.44V84.24H43.4973V85.44H42.6813ZM42.6813 93V86.748H43.4973V93H42.6813ZM50.2745 93.072C49.8985 93.072 49.6025 92.964 49.3865 92.748C49.1785 92.524 49.0745 92.228 49.0745 91.86V86.148C49.0745 85.948 49.0305 85.748 48.9425 85.548C48.8625 85.34 48.7265 85.172 48.5345 85.044C48.3505 84.908 48.0945 84.84 47.7665 84.84C47.4465 84.84 47.1865 84.92 46.9865 85.08C46.7945 85.24 46.6505 85.452 46.5545 85.716C46.4665 85.98 46.4185 86.272 46.4105 86.592V86.748H47.7305V87.396H46.4105V93H45.5945V87.396H44.7305V86.748H45.5945V86.52C45.5945 85.816 45.7705 85.24 46.1225 84.792C46.4825 84.344 47.0265 84.12 47.7545 84.12C48.4585 84.12 48.9905 84.296 49.3505 84.648C49.7105 85 49.8905 85.448 49.8905 85.992V91.584C49.8905 91.88 49.9385 92.08 50.0345 92.184C50.1385 92.288 50.2745 92.34 50.4425 92.34C50.6105 92.34 50.7705 92.324 50.9225 92.292C51.0825 92.252 51.1985 92.22 51.2705 92.196L51.4145 92.868C51.2945 92.924 51.1225 92.972 50.8985 93.012C50.6825 93.052 50.4745 93.072 50.2745 93.072ZM54.9906 93.12C54.3906 93.12 53.8546 92.972 53.3826 92.676C52.9106 92.38 52.5386 91.984 52.2666 91.488C51.9946 90.992 51.8586 90.448 51.8586 89.856C51.8586 89.272 51.9906 88.736 52.2546 88.248C52.5266 87.76 52.8986 87.372 53.3706 87.084C53.8426 86.788 54.3786 86.64 54.9786 86.64C55.5946 86.64 56.1346 86.788 56.5986 87.084C57.0626 87.38 57.4226 87.772 57.6786 88.26C57.9426 88.74 58.0746 89.268 58.0746 89.844C58.0746 89.972 58.0706 90.08 58.0626 90.168H52.7106C52.7506 90.616 52.8786 91.016 53.0946 91.368C53.3106 91.712 53.5866 91.988 53.9226 92.196C54.2586 92.396 54.6266 92.496 55.0266 92.496C55.4346 92.496 55.8186 92.392 56.1786 92.184C56.5386 91.976 56.7946 91.704 56.9466 91.368L57.6546 91.56C57.5266 91.864 57.3266 92.136 57.0546 92.376C56.7906 92.608 56.4826 92.792 56.1306 92.928C55.7786 93.056 55.3986 93.12 54.9906 93.12ZM52.6866 89.58H57.3066C57.2746 89.132 57.1506 88.736 56.9346 88.392C56.7186 88.04 56.4426 87.768 56.1066 87.576C55.7706 87.376 55.3986 87.276 54.9906 87.276C54.5826 87.276 54.2106 87.376 53.8746 87.576C53.5386 87.768 53.2626 88.04 53.0466 88.392C52.8386 88.736 52.7186 89.132 52.6866 89.58ZM61.3856 93.12C60.8736 93.12 60.3976 93.036 59.9576 92.868C59.5256 92.692 59.1456 92.436 58.8176 92.1L59.1536 91.524C59.5056 91.852 59.8576 92.092 60.2096 92.244C60.5696 92.388 60.9496 92.46 61.3496 92.46C61.8296 92.46 62.2216 92.364 62.5256 92.172C62.8376 91.972 62.9936 91.688 62.9936 91.32C62.9936 91.072 62.9176 90.884 62.7656 90.756C62.6216 90.62 62.4096 90.512 62.1296 90.432C61.8576 90.352 61.5296 90.26 61.1456 90.156C60.7136 90.036 60.3496 89.912 60.0536 89.784C59.7656 89.648 59.5456 89.48 59.3936 89.28C59.2496 89.072 59.1776 88.804 59.1776 88.476C59.1776 88.076 59.2776 87.74 59.4776 87.468C59.6856 87.196 59.9656 86.992 60.3176 86.856C60.6776 86.712 61.0776 86.64 61.5176 86.64C61.9976 86.64 62.4216 86.716 62.7896 86.868C63.1576 87.02 63.4576 87.232 63.6896 87.504L63.2936 88.056C63.0776 87.8 62.8096 87.612 62.4896 87.492C62.1776 87.364 61.8376 87.3 61.4696 87.3C61.2136 87.3 60.9696 87.336 60.7376 87.408C60.5056 87.472 60.3136 87.584 60.1616 87.744C60.0176 87.896 59.9456 88.108 59.9456 88.38C59.9456 88.716 60.0696 88.948 60.3176 89.076C60.5656 89.204 60.9416 89.34 61.4456 89.484C61.9176 89.612 62.3296 89.74 62.6816 89.868C63.0336 89.996 63.3056 90.168 63.4976 90.384C63.6896 90.592 63.7856 90.884 63.7856 91.26C63.7856 91.844 63.5656 92.3 63.1256 92.628C62.6856 92.956 62.1056 93.12 61.3856 93.12Z" fill="white"/>
</g>
<g filter="url(#filter2_d)">
<path d="M12.7572 32.9778C13.1582 33.1157 13.4824 33.3415 13.7298 33.655C13.9697 33.966 14.1206 34.3267 14.1824 34.7371C14.2393 35.1374 14.1974 35.5418 14.0569 35.9503L12.7491 39.7516L4.69254 36.9798L6.02769 33.0991C6.15782 32.7208 6.37186 32.4307 6.6698 32.2286C6.96018 32.024 7.29026 31.9006 7.66003 31.8587C8.02224 31.8141 8.37356 31.8503 8.71397 31.9675C9.11491 32.1054 9.45045 32.335 9.72059 32.6564C9.99074 32.9778 10.1466 33.3486 10.1881 33.769C10.4804 33.362 10.8587 33.0861 11.3231 32.9412C11.7875 32.7964 12.2655 32.8086 12.7572 32.9778ZM5.658 36.4237L8.63097 37.4465L9.58353 34.6778C9.67462 34.413 9.68722 34.1551 9.62132 33.904C9.55046 33.6427 9.42487 33.4176 9.24453 33.2287C9.05922 33.0295 8.83419 32.8844 8.56942 32.7934C8.29709 32.6997 8.02793 32.6705 7.76194 32.7059C7.49596 32.7413 7.26483 32.8352 7.06856 32.9877C6.86473 33.1375 6.71987 33.3372 6.63398 33.5869L5.658 36.4237ZM12.3478 33.7253C12.083 33.6342 11.8126 33.6088 11.5364 33.6492C11.2603 33.6895 11.0139 33.7909 10.7973 33.9532C10.5833 34.108 10.4307 34.3178 10.3396 34.5826L9.27776 37.669L12.3302 38.7192L13.3647 35.7122C13.4584 35.4398 13.4711 35.1693 13.4029 34.9004C13.3346 34.6316 13.2091 34.3938 13.0264 34.1872C12.8388 33.9703 12.6126 33.8163 12.3478 33.7253Z" fill="white"/>
<path d="M10.7311 23.3594L11.1983 22.6904L17.2195 26.8952C17.4753 27.0738 17.6723 27.148 17.8106 27.1176C17.9534 27.0808 18.0729 26.9935 18.1691 26.8557C18.2516 26.7377 18.3209 26.6105 18.3771 26.4741C18.4379 26.3311 18.4826 26.2111 18.5114 26.1141L19.1349 26.3739C19.1004 26.5352 19.0354 26.7191 18.9399 26.9257C18.8491 27.1257 18.7578 27.2912 18.6662 27.4224C18.4555 27.7241 18.1975 27.905 17.8922 27.965C17.5914 28.0184 17.2869 27.9375 16.9786 27.7222L10.7311 23.3594Z" fill="white"/>
<path d="M21.849 20.6299C21.6029 20.3351 21.4761 20.0084 21.4686 19.65C21.456 19.2853 21.5489 18.916 21.7473 18.5419C21.9518 18.1628 22.2537 17.8066 22.6529 17.4733C22.8863 17.2785 23.1468 17.0975 23.4345 16.9303C23.717 16.7569 23.9848 16.622 24.2377 16.5255L23.8993 16.1202C23.5609 15.7148 23.172 15.4924 22.7326 15.4528C22.2931 15.4133 21.8615 15.5704 21.4378 15.9241C21.186 16.1343 20.9752 16.3936 20.8054 16.7021C20.6305 17.0044 20.4849 17.3605 20.3684 17.7703L19.7598 17.5281C19.8936 17.0516 20.0673 16.6356 20.2811 16.28C20.4898 15.9183 20.7507 15.6067 21.0639 15.3452C21.6535 14.853 22.2612 14.6323 22.8871 14.6829C23.513 14.7336 24.0746 15.0568 24.5719 15.6525L26.4252 17.8726C26.5636 18.0384 26.7122 18.0603 26.8708 17.9383L27.2861 18.4357C27.1664 18.567 27.0763 18.6526 27.0159 18.6926C26.8572 18.8146 26.6995 18.8629 26.5428 18.8374C26.3861 18.8119 26.261 18.7495 26.1677 18.6503L25.8663 18.3079C25.8821 18.7637 25.7821 19.2119 25.5663 19.6526C25.3455 20.087 25.0569 20.453 24.7007 20.7503C24.3875 21.0118 24.0543 21.1806 23.7009 21.2567C23.3425 21.3266 23.0004 21.31 22.6745 21.2069C22.3497 21.0924 22.0746 20.9001 21.849 20.6299ZM25.3716 18.3145C25.3744 18.0307 25.3169 17.8183 25.1989 17.677L24.6145 16.9769C24.0523 17.1648 23.5409 17.451 23.0803 17.8356C22.632 18.2098 22.344 18.6013 22.2163 19.0101C22.0886 19.4189 22.153 19.7769 22.4093 20.084C22.6298 20.348 22.931 20.5029 23.3131 20.5487C23.7014 20.5893 24.0797 20.4559 24.4482 20.1483C24.7491 19.897 24.9799 19.6054 25.1404 19.2734C25.3071 18.9363 25.3841 18.6166 25.3716 18.3145Z" fill="white"/>
<path d="M35.4536 14.0931C34.8917 14.3254 34.3362 14.395 33.7869 14.3018C33.2345 14.2012 32.7394 13.9774 32.3016 13.6304C31.8607 13.2759 31.5272 12.8252 31.301 12.2781C31.0748 11.731 30.992 11.1852 31.0525 10.6408C31.11 10.089 31.3018 9.58978 31.628 9.14328C31.9511 8.68939 32.3972 8.34476 32.9665 8.10939C33.5062 7.88624 34.0313 7.81629 34.5418 7.89952C35.0567 7.97231 35.5048 8.17661 35.886 8.51242L35.2504 9.04792C34.9655 8.81945 34.6416 8.68503 34.2786 8.64465C33.92 8.59383 33.5632 8.64178 33.2083 8.78851C32.8165 8.95052 32.5029 9.19705 32.2676 9.5281C32.0396 9.8561 31.9029 10.2373 31.8574 10.6716C31.8162 11.0955 31.8858 11.5255 32.0662 11.9617C32.2465 12.3979 32.5062 12.7537 32.8451 13.0291C33.184 13.3045 33.5568 13.4836 33.9633 13.5666C34.3668 13.6421 34.7608 13.6004 35.1452 13.4415C35.3966 13.3376 35.6222 13.1923 35.8221 13.0058C36.022 12.8193 36.1764 12.6169 36.2853 12.3988C36.3911 12.1732 36.4369 11.9595 36.4227 11.7576L37.2574 11.6722C37.267 11.9885 37.1994 12.3065 37.0545 12.6261C36.9066 12.9383 36.696 13.2245 36.4226 13.4847C36.1463 13.7375 35.8232 13.9403 35.4536 14.0931Z" fill="white"/>
<path d="M48.419 11.1016L45.8288 8.11487L44.6124 9.47576L44.7853 11.4241L43.9725 11.4962L43.198 2.77055L44.0108 2.6984L44.5349 8.60319L47.7597 4.89554L48.6562 4.81597L46.3362 7.58795L49.3036 11.023L48.419 11.1016Z" fill="white"/>
<path d="M65.6247 9.57939C65.8557 9.12244 66.1633 8.70874 66.5478 8.33831C66.9393 7.97149 67.3806 7.68359 67.8717 7.47462C68.3663 7.2585 68.8927 7.15701 69.4508 7.17015C70.0124 7.17614 70.5789 7.32348 71.1501 7.61216C71.8212 7.95135 72.3202 8.40072 72.6469 8.96025C72.9773 9.51265 73.134 10.0893 73.1171 10.6903L72.344 10.7568C72.3494 10.3382 72.2759 9.96937 72.1234 9.65029C71.9745 9.32408 71.779 9.04596 71.5367 8.81594C71.3015 8.58953 71.0447 8.40596 70.7662 8.26523C70.3093 8.03429 69.859 7.92323 69.4153 7.93206C68.9752 7.93374 68.5562 8.02675 68.1583 8.21108C67.7675 8.39902 67.4176 8.64795 67.1086 8.95789C66.7996 9.26782 66.5476 9.61557 66.3528 10.0011C66.1399 10.4224 66.0074 10.8619 65.9553 11.3196C65.9069 11.7702 65.9354 12.2104 66.0409 12.6402C66.1464 13.0699 66.3254 13.4607 66.5779 13.8124C66.8411 14.1606 67.1762 14.4375 67.5832 14.6432C67.8688 14.7875 68.1868 14.8855 68.5372 14.9371C68.8876 14.9887 69.2436 14.9759 69.6053 14.8987C69.967 14.8216 70.313 14.6603 70.6432 14.4148L71.102 15.0501C70.7465 15.3455 70.3378 15.5423 69.8758 15.6405C69.421 15.7423 68.9558 15.7582 68.4803 15.6882C68.0119 15.6217 67.5849 15.4911 67.1994 15.2962C66.6782 15.0328 66.2557 14.6804 65.932 14.2389C65.612 13.7903 65.3851 13.2992 65.2515 12.7656C65.1285 12.2284 65.0987 11.6844 65.1619 11.1337C65.2287 10.5759 65.383 10.0578 65.6247 9.57939Z" fill="white"/>
<path d="M80.6662 15.3439L81.4808 14.4628L82.08 15.0167L81.2653 15.8979L80.6662 15.3439ZM75.5341 20.8951L79.7782 16.3044L80.3774 16.8583L76.1332 21.449L75.5341 20.8951Z" fill="white"/>
<path d="M82.691 28.891C82.604 28.8341 82.4455 28.729 82.2156 28.5757C81.9857 28.4225 81.7763 28.2069 81.5874 27.929C81.3895 27.6379 81.2991 27.3269 81.3161 26.9962C81.3331 26.6654 81.507 26.3876 81.8379 26.1627L85.5397 23.6467L85.0541 22.9321L85.59 22.5678L86.0757 23.2824L87.8224 22.0952L88.2811 22.7701L86.5344 23.9573L87.3438 25.1482L86.8079 25.5125L85.9984 24.3215L82.4851 26.7095C82.3022 26.8531 82.205 27.0159 82.1933 27.198C82.1927 27.3822 82.2464 27.5537 82.3543 27.7125C82.4802 27.8977 82.6224 28.0429 82.7809 28.148C82.9505 28.2552 83.062 28.3196 83.1155 28.3414L82.691 28.891Z" fill="white"/>
<path d="M83.83 35.913C83.8575 36.0219 83.8876 36.1257 83.9202 36.2245C83.9451 36.3257 83.9728 36.3967 84.003 36.4372C84.0407 36.5259 84.1214 36.5919 84.2453 36.6353C84.364 36.6888 84.5713 36.7299 84.8672 36.7586C85.158 36.7974 85.5918 36.8355 86.1685 36.8726L91.2521 32.3268L91.5228 33.1473L87.1015 37.0197L92.9028 37.3295L93.1585 38.1044L84.4853 37.5544C84.2374 37.5435 84.0011 37.4656 83.7764 37.3207C83.5517 37.1758 83.3816 36.9413 83.2663 36.6171C83.2361 36.5513 83.2123 36.4791 83.1948 36.4006C83.1698 36.3247 83.1498 36.2386 83.1349 36.1424L83.83 35.913Z" fill="white"/>
</g>
</g>
<defs>
<filter id="filter0_d" x="18" y="30" width="63" height="59" filterUnits="userSpaceOnUse" color-interpolation-filters="sRGB">
<feFlood flood-opacity="0" result="BackgroundImageFix"/>
<feColorMatrix in="SourceAlpha" type="matrix" values="0 0 0 0 0 0 0 0 0 0 0 0 0 0 0 0 0 0 127 0"/>
<feOffset dy="4"/>
<feGaussianBlur stdDeviation="2"/>
<feColorMatrix type="matrix" values="0 0 0 0 0 0 0 0 0 0 0 0 0 0 0 0 0 0 0.25 0"/>
<feBlend mode="normal" in2="BackgroundImageFix" result="effect1_dropShadow"/>
<feBlend mode="normal" in="SourceGraphic" in2="effect1_dropShadow" result="shape"/>
</filter>
<filter id="filter1_d" x="31.068" y="84.12" width="36.7176" height="17" filterUnits="userSpaceOnUse" color-interpolation-filters="sRGB">
<feFlood flood-opacity="0" result="BackgroundImageFix"/>
<feColorMatrix in="SourceAlpha" type="matrix" values="0 0 0 0 0 0 0 0 0 0 0 0 0 0 0 0 0 0 127 0"/>
<feOffset dy="4"/>
<feGaussianBlur stdDeviation="2"/>
<feColorMatrix type="matrix" values="0 0 0 0 0 0 0 0 0 0 0 0 0 0 0 0 0 0 0.25 0"/>
<feBlend mode="normal" in2="BackgroundImageFix" result="effect1_dropShadow"/>
<feBlend mode="normal" in="SourceGraphic" in2="effect1_dropShadow" result="shape"/>
</filter>
<filter id="filter2_d" x="0.692539" y="2.69843" width="96.4659" height="45.0532" filterUnits="userSpaceOnUse" color-interpolation-filters="sRGB">
<feFlood flood-opacity="0" result="BackgroundImageFix"/>
<feColorMatrix in="SourceAlpha" type="matrix" values="0 0 0 0 0 0 0 0 0 0 0 0 0 0 0 0 0 0 127 0"/>
<feOffset dy="4"/>
<feGaussianBlur stdDeviation="2"/>
<feColorMatrix type="matrix" values="0 0 0 0 0 0 0 0 0 0 0 0 0 0 0 0 0 0 0.25 0"/>
<feBlend mode="normal" in2="BackgroundImageFix" result="effect1_dropShadow"/>
<feBlend mode="normal" in="SourceGraphic" in2="effect1_dropShadow" result="shape"/>
</filter>
<clipPath id="clip0">
<rect width="100" height="100" fill="white"/>
</clipPath>
</defs>
</svg>
